<mxfile host="app.diagrams.net" modified="2022-02-27T13:58:54.427Z" agent="5.0 (Windows NT 10.0; Win64; x64) AppleWebKit/537.36 (KHTML, like Gecko) Chrome/98.0.4758.102 Safari/537.36" etag="IEDCHcz4kVmupA7A-4iB" version="16.6.4" type="github">
  <diagram id="uhMTOCQxYAXmYfAqve4G" name="Page-1">
    <mxGraphModel dx="1422" dy="706" grid="1" gridSize="10" guides="1" tooltips="1" connect="1" arrows="1" fold="1" page="1" pageScale="1" pageWidth="827" pageHeight="1169" math="0" shadow="0">
      <root>
        <mxCell id="0" />
        <mxCell id="1" parent="0" />
        <mxCell id="QmlifTvjpnVVAQiFLO3C-1" value="&lt;font style=&quot;font-size: 22px;&quot;&gt;b1&lt;/font&gt;" style="rounded=0;whiteSpace=wrap;html=1;fontSize=22;" vertex="1" parent="1">
          <mxGeometry x="200" y="290" width="120" height="60" as="geometry" />
        </mxCell>
        <mxCell id="QmlifTvjpnVVAQiFLO3C-2" value="b2" style="rounded=0;whiteSpace=wrap;html=1;fontSize=22;" vertex="1" parent="1">
          <mxGeometry x="320" y="290" width="120" height="60" as="geometry" />
        </mxCell>
        <mxCell id="QmlifTvjpnVVAQiFLO3C-54" style="edgeStyle=orthogonalEdgeStyle;rounded=0;orthogonalLoop=1;jettySize=auto;html=1;fontSize=22;" edge="1" parent="1" source="QmlifTvjpnVVAQiFLO3C-3" target="QmlifTvjpnVVAQiFLO3C-31">
          <mxGeometry relative="1" as="geometry" />
        </mxCell>
        <mxCell id="QmlifTvjpnVVAQiFLO3C-3" value="b3" style="rounded=0;whiteSpace=wrap;html=1;fontSize=22;" vertex="1" parent="1">
          <mxGeometry x="440" y="290" width="120" height="60" as="geometry" />
        </mxCell>
        <mxCell id="QmlifTvjpnVVAQiFLO3C-10" value="b1" style="rounded=0;whiteSpace=wrap;html=1;fontSize=22;" vertex="1" parent="1">
          <mxGeometry x="200" y="370" width="120" height="60" as="geometry" />
        </mxCell>
        <mxCell id="QmlifTvjpnVVAQiFLO3C-11" value="b2" style="rounded=0;whiteSpace=wrap;html=1;fontSize=22;" vertex="1" parent="1">
          <mxGeometry x="320" y="370" width="120" height="60" as="geometry" />
        </mxCell>
        <mxCell id="QmlifTvjpnVVAQiFLO3C-55" style="edgeStyle=orthogonalEdgeStyle;rounded=0;orthogonalLoop=1;jettySize=auto;html=1;entryX=0;entryY=0.5;entryDx=0;entryDy=0;fontSize=22;" edge="1" parent="1" source="QmlifTvjpnVVAQiFLO3C-12" target="QmlifTvjpnVVAQiFLO3C-43">
          <mxGeometry relative="1" as="geometry">
            <Array as="points">
              <mxPoint x="600" y="400" />
              <mxPoint x="600" y="635" />
            </Array>
          </mxGeometry>
        </mxCell>
        <mxCell id="QmlifTvjpnVVAQiFLO3C-12" value="b3" style="rounded=0;whiteSpace=wrap;html=1;fontSize=22;" vertex="1" parent="1">
          <mxGeometry x="440" y="370" width="120" height="60" as="geometry" />
        </mxCell>
        <mxCell id="QmlifTvjpnVVAQiFLO3C-13" value="b1" style="rounded=0;whiteSpace=wrap;html=1;fontSize=22;" vertex="1" parent="1">
          <mxGeometry x="200" y="450" width="120" height="60" as="geometry" />
        </mxCell>
        <mxCell id="QmlifTvjpnVVAQiFLO3C-14" value="b2" style="rounded=0;whiteSpace=wrap;html=1;fontSize=22;" vertex="1" parent="1">
          <mxGeometry x="320" y="450" width="120" height="60" as="geometry" />
        </mxCell>
        <mxCell id="QmlifTvjpnVVAQiFLO3C-56" style="edgeStyle=orthogonalEdgeStyle;rounded=0;orthogonalLoop=1;jettySize=auto;html=1;entryX=0;entryY=0.5;entryDx=0;entryDy=0;fontSize=22;" edge="1" parent="1" source="QmlifTvjpnVVAQiFLO3C-15" target="QmlifTvjpnVVAQiFLO3C-31">
          <mxGeometry relative="1" as="geometry" />
        </mxCell>
        <mxCell id="QmlifTvjpnVVAQiFLO3C-15" value="b3" style="rounded=0;whiteSpace=wrap;html=1;fontSize=22;" vertex="1" parent="1">
          <mxGeometry x="440" y="450" width="120" height="60" as="geometry" />
        </mxCell>
        <mxCell id="QmlifTvjpnVVAQiFLO3C-16" value="b1" style="rounded=0;whiteSpace=wrap;html=1;fontSize=22;" vertex="1" parent="1">
          <mxGeometry x="200" y="690" width="120" height="60" as="geometry" />
        </mxCell>
        <mxCell id="QmlifTvjpnVVAQiFLO3C-17" value="b2" style="rounded=0;whiteSpace=wrap;html=1;fontSize=22;" vertex="1" parent="1">
          <mxGeometry x="320" y="690" width="120" height="60" as="geometry" />
        </mxCell>
        <mxCell id="QmlifTvjpnVVAQiFLO3C-57" style="edgeStyle=orthogonalEdgeStyle;rounded=0;orthogonalLoop=1;jettySize=auto;html=1;entryX=0;entryY=0.5;entryDx=0;entryDy=0;fontSize=22;" edge="1" parent="1" source="QmlifTvjpnVVAQiFLO3C-18" target="QmlifTvjpnVVAQiFLO3C-43">
          <mxGeometry relative="1" as="geometry">
            <Array as="points">
              <mxPoint x="600" y="720" />
              <mxPoint x="600" y="635" />
            </Array>
          </mxGeometry>
        </mxCell>
        <mxCell id="QmlifTvjpnVVAQiFLO3C-18" value="b3" style="rounded=0;whiteSpace=wrap;html=1;fontSize=22;" vertex="1" parent="1">
          <mxGeometry x="440" y="690" width="120" height="60" as="geometry" />
        </mxCell>
        <mxCell id="QmlifTvjpnVVAQiFLO3C-19" value="" style="endArrow=none;dashed=1;html=1;dashPattern=1 3;strokeWidth=2;rounded=0;fontSize=22;" edge="1" parent="1">
          <mxGeometry width="50" height="50" relative="1" as="geometry">
            <mxPoint x="390" y="650" as="sourcePoint" />
            <mxPoint x="390" y="540" as="targetPoint" />
          </mxGeometry>
        </mxCell>
        <mxCell id="QmlifTvjpnVVAQiFLO3C-22" value="" style="shape=flexArrow;endArrow=classic;html=1;rounded=0;" edge="1" parent="1">
          <mxGeometry width="50" height="50" relative="1" as="geometry">
            <mxPoint x="80" y="320" as="sourcePoint" />
            <mxPoint x="170" y="320" as="targetPoint" />
          </mxGeometry>
        </mxCell>
        <mxCell id="QmlifTvjpnVVAQiFLO3C-23" value="&lt;span style=&quot;font-size: 22px&quot;&gt;data1[13:0]&lt;/span&gt;" style="text;html=1;strokeColor=none;fillColor=none;align=center;verticalAlign=middle;whiteSpace=wrap;rounded=0;" vertex="1" parent="1">
          <mxGeometry x="50" y="270" width="130" height="50" as="geometry" />
        </mxCell>
        <mxCell id="QmlifTvjpnVVAQiFLO3C-24" value="" style="shape=flexArrow;endArrow=classic;html=1;rounded=0;" edge="1" parent="1">
          <mxGeometry width="50" height="50" relative="1" as="geometry">
            <mxPoint x="80" y="410" as="sourcePoint" />
            <mxPoint x="170" y="410" as="targetPoint" />
          </mxGeometry>
        </mxCell>
        <mxCell id="QmlifTvjpnVVAQiFLO3C-25" value="&lt;font style=&quot;font-size: 22px&quot;&gt;data2[13:0]&lt;/font&gt;" style="text;html=1;strokeColor=none;fillColor=none;align=center;verticalAlign=middle;whiteSpace=wrap;rounded=0;" vertex="1" parent="1">
          <mxGeometry x="50" y="360" width="130" height="50" as="geometry" />
        </mxCell>
        <mxCell id="QmlifTvjpnVVAQiFLO3C-26" value="" style="shape=flexArrow;endArrow=classic;html=1;rounded=0;" edge="1" parent="1">
          <mxGeometry width="50" height="50" relative="1" as="geometry">
            <mxPoint x="80" y="480" as="sourcePoint" />
            <mxPoint x="170" y="480" as="targetPoint" />
          </mxGeometry>
        </mxCell>
        <mxCell id="QmlifTvjpnVVAQiFLO3C-27" value="&lt;font style=&quot;font-size: 22px&quot;&gt;data3[13:0]&lt;/font&gt;" style="text;html=1;strokeColor=none;fillColor=none;align=center;verticalAlign=middle;whiteSpace=wrap;rounded=0;" vertex="1" parent="1">
          <mxGeometry x="50" y="430" width="130" height="50" as="geometry" />
        </mxCell>
        <mxCell id="QmlifTvjpnVVAQiFLO3C-28" value="" style="shape=flexArrow;endArrow=classic;html=1;rounded=0;" edge="1" parent="1">
          <mxGeometry width="50" height="50" relative="1" as="geometry">
            <mxPoint x="80" y="720" as="sourcePoint" />
            <mxPoint x="170" y="720" as="targetPoint" />
          </mxGeometry>
        </mxCell>
        <mxCell id="QmlifTvjpnVVAQiFLO3C-29" value="&lt;font style=&quot;font-size: 22px&quot;&gt;data16[13:0]&lt;/font&gt;" style="text;html=1;strokeColor=none;fillColor=none;align=center;verticalAlign=middle;whiteSpace=wrap;rounded=0;" vertex="1" parent="1">
          <mxGeometry x="50" y="670" width="130" height="50" as="geometry" />
        </mxCell>
        <mxCell id="QmlifTvjpnVVAQiFLO3C-62" style="edgeStyle=orthogonalEdgeStyle;rounded=0;orthogonalLoop=1;jettySize=auto;html=1;fontSize=22;entryX=1;entryY=0.5;entryDx=0;entryDy=0;" edge="1" parent="1" source="QmlifTvjpnVVAQiFLO3C-31" target="QmlifTvjpnVVAQiFLO3C-88">
          <mxGeometry relative="1" as="geometry">
            <mxPoint x="1350" y="395" as="targetPoint" />
            <Array as="points">
              <mxPoint x="1400" y="395" />
              <mxPoint x="1400" y="90" />
            </Array>
          </mxGeometry>
        </mxCell>
        <mxCell id="QmlifTvjpnVVAQiFLO3C-109" style="edgeStyle=orthogonalEdgeStyle;rounded=0;orthogonalLoop=1;jettySize=auto;html=1;entryX=1;entryY=0.5;entryDx=0;entryDy=0;fontSize=22;" edge="1" parent="1" source="QmlifTvjpnVVAQiFLO3C-31" target="QmlifTvjpnVVAQiFLO3C-88">
          <mxGeometry relative="1" as="geometry">
            <Array as="points">
              <mxPoint x="1381" y="360" />
              <mxPoint x="1381" y="90" />
            </Array>
          </mxGeometry>
        </mxCell>
        <mxCell id="QmlifTvjpnVVAQiFLO3C-31" value="" style="rounded=0;whiteSpace=wrap;html=1;fontSize=22;" vertex="1" parent="1">
          <mxGeometry x="670" y="280" width="560" height="230" as="geometry" />
        </mxCell>
        <mxCell id="QmlifTvjpnVVAQiFLO3C-32" value="fifo1" style="rounded=0;whiteSpace=wrap;html=1;fontSize=22;" vertex="1" parent="1">
          <mxGeometry x="690" y="290" width="120" height="60" as="geometry" />
        </mxCell>
        <mxCell id="QmlifTvjpnVVAQiFLO3C-36" value="fifo3" style="rounded=0;whiteSpace=wrap;html=1;fontSize=22;" vertex="1" parent="1">
          <mxGeometry x="827" y="290" width="120" height="60" as="geometry" />
        </mxCell>
        <mxCell id="QmlifTvjpnVVAQiFLO3C-37" value="fifo5" style="rounded=0;whiteSpace=wrap;html=1;fontSize=22;" vertex="1" parent="1">
          <mxGeometry x="960" y="290" width="120" height="60" as="geometry" />
        </mxCell>
        <mxCell id="QmlifTvjpnVVAQiFLO3C-38" value="fifo7" style="rounded=0;whiteSpace=wrap;html=1;fontSize=22;" vertex="1" parent="1">
          <mxGeometry x="1090" y="290" width="120" height="60" as="geometry" />
        </mxCell>
        <mxCell id="QmlifTvjpnVVAQiFLO3C-39" value="fifo9" style="rounded=0;whiteSpace=wrap;html=1;fontSize=22;" vertex="1" parent="1">
          <mxGeometry x="690" y="410" width="120" height="60" as="geometry" />
        </mxCell>
        <mxCell id="QmlifTvjpnVVAQiFLO3C-40" value="fifo11" style="rounded=0;whiteSpace=wrap;html=1;fontSize=22;" vertex="1" parent="1">
          <mxGeometry x="827" y="410" width="120" height="60" as="geometry" />
        </mxCell>
        <mxCell id="QmlifTvjpnVVAQiFLO3C-41" value="fifo13" style="rounded=0;whiteSpace=wrap;html=1;fontSize=22;" vertex="1" parent="1">
          <mxGeometry x="960" y="410" width="120" height="60" as="geometry" />
        </mxCell>
        <mxCell id="QmlifTvjpnVVAQiFLO3C-42" value="fifo15" style="rounded=0;whiteSpace=wrap;html=1;fontSize=22;" vertex="1" parent="1">
          <mxGeometry x="1090" y="410" width="120" height="60" as="geometry" />
        </mxCell>
        <mxCell id="QmlifTvjpnVVAQiFLO3C-61" style="edgeStyle=orthogonalEdgeStyle;rounded=0;orthogonalLoop=1;jettySize=auto;html=1;exitX=1;exitY=0.5;exitDx=0;exitDy=0;entryX=1;entryY=0.5;entryDx=0;entryDy=0;fontSize=22;" edge="1" parent="1" source="QmlifTvjpnVVAQiFLO3C-43" target="QmlifTvjpnVVAQiFLO3C-90">
          <mxGeometry relative="1" as="geometry">
            <mxPoint x="1340" y="635" as="targetPoint" />
            <Array as="points">
              <mxPoint x="1230" y="550" />
              <mxPoint x="1400" y="550" />
              <mxPoint x="1400" y="960" />
            </Array>
          </mxGeometry>
        </mxCell>
        <mxCell id="QmlifTvjpnVVAQiFLO3C-100" style="edgeStyle=orthogonalEdgeStyle;rounded=0;orthogonalLoop=1;jettySize=auto;html=1;entryX=1;entryY=0.5;entryDx=0;entryDy=0;fontSize=22;" edge="1" parent="1" source="QmlifTvjpnVVAQiFLO3C-43" target="QmlifTvjpnVVAQiFLO3C-90">
          <mxGeometry relative="1" as="geometry">
            <Array as="points">
              <mxPoint x="1390" y="570" />
              <mxPoint x="1390" y="960" />
            </Array>
          </mxGeometry>
        </mxCell>
        <mxCell id="QmlifTvjpnVVAQiFLO3C-101" style="edgeStyle=orthogonalEdgeStyle;rounded=0;orthogonalLoop=1;jettySize=auto;html=1;entryX=1;entryY=0.5;entryDx=0;entryDy=0;fontSize=22;" edge="1" parent="1" source="QmlifTvjpnVVAQiFLO3C-43" target="QmlifTvjpnVVAQiFLO3C-90">
          <mxGeometry relative="1" as="geometry">
            <Array as="points">
              <mxPoint x="1370" y="590" />
              <mxPoint x="1370" y="960" />
            </Array>
          </mxGeometry>
        </mxCell>
        <mxCell id="QmlifTvjpnVVAQiFLO3C-102" style="edgeStyle=orthogonalEdgeStyle;rounded=0;orthogonalLoop=1;jettySize=auto;html=1;fontSize=22;entryX=1;entryY=0.5;entryDx=0;entryDy=0;" edge="1" parent="1" source="QmlifTvjpnVVAQiFLO3C-43" target="QmlifTvjpnVVAQiFLO3C-90">
          <mxGeometry relative="1" as="geometry">
            <mxPoint x="1380" y="950" as="targetPoint" />
            <Array as="points">
              <mxPoint x="1380" y="600" />
              <mxPoint x="1380" y="960" />
            </Array>
          </mxGeometry>
        </mxCell>
        <mxCell id="QmlifTvjpnVVAQiFLO3C-103" style="edgeStyle=orthogonalEdgeStyle;rounded=0;orthogonalLoop=1;jettySize=auto;html=1;entryX=1;entryY=0.5;entryDx=0;entryDy=0;fontSize=22;" edge="1" parent="1" source="QmlifTvjpnVVAQiFLO3C-43" target="QmlifTvjpnVVAQiFLO3C-90">
          <mxGeometry relative="1" as="geometry">
            <Array as="points">
              <mxPoint x="1370" y="630" />
              <mxPoint x="1370" y="960" />
            </Array>
          </mxGeometry>
        </mxCell>
        <mxCell id="QmlifTvjpnVVAQiFLO3C-43" value="" style="rounded=0;whiteSpace=wrap;html=1;fontSize=22;" vertex="1" parent="1">
          <mxGeometry x="670" y="520" width="560" height="230" as="geometry" />
        </mxCell>
        <mxCell id="QmlifTvjpnVVAQiFLO3C-44" value="fifo2" style="rounded=0;whiteSpace=wrap;html=1;fontSize=22;" vertex="1" parent="1">
          <mxGeometry x="690" y="530" width="120" height="60" as="geometry" />
        </mxCell>
        <mxCell id="QmlifTvjpnVVAQiFLO3C-45" value="fifo4" style="rounded=0;whiteSpace=wrap;html=1;fontSize=22;" vertex="1" parent="1">
          <mxGeometry x="827" y="530" width="120" height="60" as="geometry" />
        </mxCell>
        <mxCell id="QmlifTvjpnVVAQiFLO3C-46" value="fifo6" style="rounded=0;whiteSpace=wrap;html=1;fontSize=22;" vertex="1" parent="1">
          <mxGeometry x="960" y="530" width="120" height="60" as="geometry" />
        </mxCell>
        <mxCell id="QmlifTvjpnVVAQiFLO3C-47" value="fifo8" style="rounded=0;whiteSpace=wrap;html=1;fontSize=22;" vertex="1" parent="1">
          <mxGeometry x="1090" y="530" width="120" height="60" as="geometry" />
        </mxCell>
        <mxCell id="QmlifTvjpnVVAQiFLO3C-48" value="fifo10" style="rounded=0;whiteSpace=wrap;html=1;fontSize=22;" vertex="1" parent="1">
          <mxGeometry x="690" y="650" width="120" height="60" as="geometry" />
        </mxCell>
        <mxCell id="QmlifTvjpnVVAQiFLO3C-49" value="fifo12" style="rounded=0;whiteSpace=wrap;html=1;fontSize=22;" vertex="1" parent="1">
          <mxGeometry x="827" y="650" width="120" height="60" as="geometry" />
        </mxCell>
        <mxCell id="QmlifTvjpnVVAQiFLO3C-50" value="fifo14" style="rounded=0;whiteSpace=wrap;html=1;fontSize=22;" vertex="1" parent="1">
          <mxGeometry x="960" y="650" width="120" height="60" as="geometry" />
        </mxCell>
        <mxCell id="QmlifTvjpnVVAQiFLO3C-51" value="fifo16" style="rounded=0;whiteSpace=wrap;html=1;fontSize=22;" vertex="1" parent="1">
          <mxGeometry x="1090" y="650" width="120" height="60" as="geometry" />
        </mxCell>
        <mxCell id="QmlifTvjpnVVAQiFLO3C-66" style="edgeStyle=orthogonalEdgeStyle;rounded=0;orthogonalLoop=1;jettySize=auto;html=1;entryX=0.5;entryY=0;entryDx=0;entryDy=0;fontSize=22;" edge="1" parent="1" source="QmlifTvjpnVVAQiFLO3C-65" target="QmlifTvjpnVVAQiFLO3C-31">
          <mxGeometry relative="1" as="geometry" />
        </mxCell>
        <mxCell id="QmlifTvjpnVVAQiFLO3C-79" style="edgeStyle=orthogonalEdgeStyle;rounded=0;orthogonalLoop=1;jettySize=auto;html=1;fontSize=22;" edge="1" parent="1" target="QmlifTvjpnVVAQiFLO3C-65">
          <mxGeometry relative="1" as="geometry">
            <mxPoint x="1301" y="320" as="sourcePoint" />
          </mxGeometry>
        </mxCell>
        <mxCell id="QmlifTvjpnVVAQiFLO3C-89" style="edgeStyle=orthogonalEdgeStyle;rounded=0;orthogonalLoop=1;jettySize=auto;html=1;entryX=0.5;entryY=1;entryDx=0;entryDy=0;fontSize=22;" edge="1" parent="1" source="QmlifTvjpnVVAQiFLO3C-65" target="QmlifTvjpnVVAQiFLO3C-88">
          <mxGeometry relative="1" as="geometry" />
        </mxCell>
        <mxCell id="QmlifTvjpnVVAQiFLO3C-65" value="&lt;span&gt;wreq_creat&lt;/span&gt;" style="ellipse;whiteSpace=wrap;html=1;fontSize=22;" vertex="1" parent="1">
          <mxGeometry x="1241" y="180" width="120" height="80" as="geometry" />
        </mxCell>
        <mxCell id="QmlifTvjpnVVAQiFLO3C-69" style="edgeStyle=orthogonalEdgeStyle;rounded=0;orthogonalLoop=1;jettySize=auto;html=1;entryX=0.5;entryY=1;entryDx=0;entryDy=0;fontSize=22;" edge="1" parent="1" source="QmlifTvjpnVVAQiFLO3C-68" target="QmlifTvjpnVVAQiFLO3C-43">
          <mxGeometry relative="1" as="geometry">
            <Array as="points">
              <mxPoint x="950" y="830" />
            </Array>
          </mxGeometry>
        </mxCell>
        <mxCell id="QmlifTvjpnVVAQiFLO3C-78" style="edgeStyle=orthogonalEdgeStyle;rounded=0;orthogonalLoop=1;jettySize=auto;html=1;fontSize=22;" edge="1" parent="1" target="QmlifTvjpnVVAQiFLO3C-68">
          <mxGeometry relative="1" as="geometry">
            <mxPoint x="1290" y="730" as="sourcePoint" />
          </mxGeometry>
        </mxCell>
        <mxCell id="QmlifTvjpnVVAQiFLO3C-91" style="edgeStyle=orthogonalEdgeStyle;rounded=0;orthogonalLoop=1;jettySize=auto;html=1;entryX=0.5;entryY=0;entryDx=0;entryDy=0;fontSize=22;" edge="1" parent="1" source="QmlifTvjpnVVAQiFLO3C-68" target="QmlifTvjpnVVAQiFLO3C-90">
          <mxGeometry relative="1" as="geometry" />
        </mxCell>
        <mxCell id="QmlifTvjpnVVAQiFLO3C-68" value="wreq_creat" style="ellipse;whiteSpace=wrap;html=1;fontSize=22;" vertex="1" parent="1">
          <mxGeometry x="1230" y="790" width="120" height="80" as="geometry" />
        </mxCell>
        <mxCell id="QmlifTvjpnVVAQiFLO3C-71" value="wrover" style="text;html=1;strokeColor=none;fillColor=none;align=center;verticalAlign=middle;whiteSpace=wrap;rounded=0;fontSize=22;" vertex="1" parent="1">
          <mxGeometry x="1290" y="880" width="80" height="30" as="geometry" />
        </mxCell>
        <mxCell id="QmlifTvjpnVVAQiFLO3C-72" value="wrover" style="text;html=1;strokeColor=none;fillColor=none;align=center;verticalAlign=middle;whiteSpace=wrap;rounded=0;fontSize=22;" vertex="1" parent="1">
          <mxGeometry x="1300" y="140" width="80" height="30" as="geometry" />
        </mxCell>
        <mxCell id="QmlifTvjpnVVAQiFLO3C-74" value="wreq" style="text;html=1;strokeColor=none;fillColor=none;align=center;verticalAlign=middle;whiteSpace=wrap;rounded=0;fontSize=22;" vertex="1" parent="1">
          <mxGeometry x="1010" y="800" width="60" height="30" as="geometry" />
        </mxCell>
        <mxCell id="QmlifTvjpnVVAQiFLO3C-75" value="wreq" style="text;html=1;strokeColor=none;fillColor=none;align=center;verticalAlign=middle;whiteSpace=wrap;rounded=0;fontSize=22;" vertex="1" parent="1">
          <mxGeometry x="1030" y="220" width="60" height="30" as="geometry" />
        </mxCell>
        <mxCell id="QmlifTvjpnVVAQiFLO3C-80" value="hs" style="text;html=1;strokeColor=none;fillColor=none;align=center;verticalAlign=middle;whiteSpace=wrap;rounded=0;fontSize=22;" vertex="1" parent="1">
          <mxGeometry x="1271" y="320" width="60" height="30" as="geometry" />
        </mxCell>
        <mxCell id="QmlifTvjpnVVAQiFLO3C-81" value="hs" style="text;html=1;strokeColor=none;fillColor=none;align=center;verticalAlign=middle;whiteSpace=wrap;rounded=0;fontSize=22;" vertex="1" parent="1">
          <mxGeometry x="1260" y="705" width="60" height="30" as="geometry" />
        </mxCell>
        <mxCell id="QmlifTvjpnVVAQiFLO3C-84" value="odd1[13:0]~odd8[13:0]" style="text;html=1;strokeColor=none;fillColor=none;align=center;verticalAlign=middle;whiteSpace=wrap;rounded=0;fontSize=22;" vertex="1" parent="1">
          <mxGeometry x="1285" y="400" width="110" height="30" as="geometry" />
        </mxCell>
        <mxCell id="QmlifTvjpnVVAQiFLO3C-85" value="even1[13:0]~even8[13:0]" style="text;html=1;strokeColor=none;fillColor=none;align=center;verticalAlign=middle;whiteSpace=wrap;rounded=0;fontSize=22;" vertex="1" parent="1">
          <mxGeometry x="1320" y="520" width="60" height="30" as="geometry" />
        </mxCell>
        <mxCell id="QmlifTvjpnVVAQiFLO3C-87" value="16路数据输入" style="text;html=1;strokeColor=none;fillColor=none;align=center;verticalAlign=middle;whiteSpace=wrap;rounded=0;fontSize=22;" vertex="1" parent="1">
          <mxGeometry x="220" y="562" width="150" height="45.5" as="geometry" />
        </mxCell>
        <mxCell id="QmlifTvjpnVVAQiFLO3C-93" style="edgeStyle=orthogonalEdgeStyle;rounded=0;orthogonalLoop=1;jettySize=auto;html=1;entryX=0.25;entryY=0;entryDx=0;entryDy=0;fontSize=22;" edge="1" parent="1" source="QmlifTvjpnVVAQiFLO3C-88" target="QmlifTvjpnVVAQiFLO3C-31">
          <mxGeometry relative="1" as="geometry" />
        </mxCell>
        <mxCell id="QmlifTvjpnVVAQiFLO3C-96" style="edgeStyle=orthogonalEdgeStyle;rounded=0;orthogonalLoop=1;jettySize=auto;html=1;fontSize=22;" edge="1" parent="1" source="QmlifTvjpnVVAQiFLO3C-88">
          <mxGeometry relative="1" as="geometry">
            <mxPoint x="1510" y="420" as="targetPoint" />
            <Array as="points">
              <mxPoint x="1510" y="50" />
              <mxPoint x="1510" y="400" />
            </Array>
          </mxGeometry>
        </mxCell>
        <mxCell id="QmlifTvjpnVVAQiFLO3C-88" value="rd_creat" style="ellipse;whiteSpace=wrap;html=1;fontSize=22;" vertex="1" parent="1">
          <mxGeometry x="1241" y="50" width="120" height="80" as="geometry" />
        </mxCell>
        <mxCell id="QmlifTvjpnVVAQiFLO3C-92" style="edgeStyle=orthogonalEdgeStyle;rounded=0;orthogonalLoop=1;jettySize=auto;html=1;entryX=0.25;entryY=1;entryDx=0;entryDy=0;fontSize=22;" edge="1" parent="1" source="QmlifTvjpnVVAQiFLO3C-90" target="QmlifTvjpnVVAQiFLO3C-43">
          <mxGeometry relative="1" as="geometry">
            <Array as="points">
              <mxPoint x="810" y="960" />
            </Array>
          </mxGeometry>
        </mxCell>
        <mxCell id="QmlifTvjpnVVAQiFLO3C-98" style="edgeStyle=orthogonalEdgeStyle;rounded=0;orthogonalLoop=1;jettySize=auto;html=1;fontSize=22;" edge="1" parent="1" source="QmlifTvjpnVVAQiFLO3C-90">
          <mxGeometry relative="1" as="geometry">
            <mxPoint x="1510" y="620" as="targetPoint" />
          </mxGeometry>
        </mxCell>
        <mxCell id="QmlifTvjpnVVAQiFLO3C-90" value="rd_creat" style="ellipse;whiteSpace=wrap;html=1;fontSize=22;" vertex="1" parent="1">
          <mxGeometry x="1230" y="920" width="120" height="80" as="geometry" />
        </mxCell>
        <mxCell id="QmlifTvjpnVVAQiFLO3C-94" value="rdreq" style="text;html=1;strokeColor=none;fillColor=none;align=center;verticalAlign=middle;whiteSpace=wrap;rounded=0;fontSize=22;" vertex="1" parent="1">
          <mxGeometry x="1000" y="930" width="60" height="30" as="geometry" />
        </mxCell>
        <mxCell id="QmlifTvjpnVVAQiFLO3C-95" value="rdreq" style="text;html=1;strokeColor=none;fillColor=none;align=center;verticalAlign=middle;whiteSpace=wrap;rounded=0;fontSize=22;" vertex="1" parent="1">
          <mxGeometry x="1010" y="60" width="60" height="30" as="geometry" />
        </mxCell>
        <mxCell id="QmlifTvjpnVVAQiFLO3C-105" value="" style="endArrow=none;dashed=1;html=1;dashPattern=1 3;strokeWidth=2;rounded=0;fontSize=22;" edge="1" parent="1">
          <mxGeometry width="50" height="50" relative="1" as="geometry">
            <mxPoint x="1380" y="585" as="sourcePoint" />
            <mxPoint x="1380" y="545" as="targetPoint" />
          </mxGeometry>
        </mxCell>
        <mxCell id="QmlifTvjpnVVAQiFLO3C-108" value="" style="endArrow=none;dashed=1;html=1;dashPattern=1 3;strokeWidth=2;rounded=0;fontSize=22;" edge="1" parent="1">
          <mxGeometry width="50" height="50" relative="1" as="geometry">
            <mxPoint x="1380" y="390" as="sourcePoint" />
            <mxPoint x="1380" y="370" as="targetPoint" />
          </mxGeometry>
        </mxCell>
        <mxCell id="QmlifTvjpnVVAQiFLO3C-111" value="outPutData" style="rounded=0;whiteSpace=wrap;html=1;fontSize=22;" vertex="1" parent="1">
          <mxGeometry x="1500" y="420" width="120" height="60" as="geometry" />
        </mxCell>
        <mxCell id="QmlifTvjpnVVAQiFLO3C-112" value="outPutData" style="rounded=0;whiteSpace=wrap;html=1;fontSize=22;" vertex="1" parent="1">
          <mxGeometry x="1500" y="554.75" width="120" height="60" as="geometry" />
        </mxCell>
        <mxCell id="QmlifTvjpnVVAQiFLO3C-113" value="两路14位数据" style="text;html=1;strokeColor=none;fillColor=none;align=center;verticalAlign=middle;whiteSpace=wrap;rounded=0;fontSize=22;" vertex="1" parent="1">
          <mxGeometry x="1500" y="490" width="140" height="60" as="geometry" />
        </mxCell>
      </root>
    </mxGraphModel>
  </diagram>
</mxfile>
